<svg width="32" height="32" viewBox="0 0 32 32" fill="none" xmlns="http://www.w3.org/2000/svg">
<path d="M3.0561 2.77793C3.01676 3.29127 2.98723 3.70762 2.96723 4.02696C2.94723 4.34629 2.93169 4.66359 2.92035 4.97959C2.90902 5.29559 2.90061 5.56224 2.89594 5.77891C2.89127 5.99558 2.86781 6.21432 2.82514 6.43565C2.78247 6.65698 2.75294 6.90388 2.73627 7.17588C2.71961 7.44788 2.70172 7.7299 2.68305 8.02256C2.66438 8.31523 2.6546 8.61562 2.65326 8.92295C2.65193 9.23029 2.63032 9.52412 2.58832 9.80479C2.54632 10.0855 2.51444 10.3558 2.49311 10.6158C2.47177 10.8758 2.45437 11.0946 2.44037 11.2726C2.42637 11.4506 2.4161 11.6819 2.4101 11.9659C2.4041 12.2499 2.40038 12.5593 2.39838 12.8946C2.39638 13.23 2.39217 13.5636 2.38617 13.8956C2.38017 14.2276 2.38017 14.5219 2.38617 14.7779C2.39217 15.0339 2.39031 15.2466 2.38031 15.4166C2.37031 15.5866 2.37031 15.7763 2.38031 15.985C2.39031 16.1936 2.39031 16.4261 2.38031 16.6827C2.37031 16.9394 2.37031 17.2693 2.38031 17.672C2.39031 18.0746 2.39031 18.4022 2.38031 18.6549C2.37031 18.9076 2.37031 19.1953 2.38031 19.5187C2.39031 19.842 2.39031 20.164 2.38031 20.484C2.37031 20.804 2.37031 21.11 2.38031 21.402C2.39031 21.694 2.39031 22.0253 2.38031 22.3966C2.37031 22.7679 2.35057 23.1134 2.32123 23.4327C2.2919 23.7521 2.26423 24.0327 2.23823 24.274C2.21223 24.5154 2.19668 24.7223 2.19135 24.8956C2.18602 25.0689 2.1958 25.2013 2.22114 25.2926C2.24647 25.3839 2.32529 25.4374 2.45795 25.4527C2.59062 25.4681 2.72682 25.4601 2.86615 25.4288C3.00549 25.3975 3.13593 25.374 3.25727 25.358C3.3786 25.342 3.50298 25.312 3.63031 25.2687C3.75765 25.2253 3.91732 25.1897 4.10932 25.1617C4.30132 25.1337 4.48105 25.0765 4.64838 24.9898C4.81571 24.9032 5.00492 24.8183 5.21625 24.735C5.42759 24.6516 5.62286 24.5863 5.80219 24.5397C5.98152 24.493 6.16125 24.44 6.34125 24.38C6.52125 24.32 6.69306 24.2547 6.85639 24.1847C7.01972 24.1147 7.20707 24.0593 7.4184 24.0187C7.62973 23.978 7.8034 23.9306 7.9394 23.8766C8.0754 23.8226 8.24299 23.7596 8.44233 23.6876C8.64166 23.6156 8.82666 23.5447 8.99799 23.4747C9.16932 23.4047 9.34299 23.3475 9.51899 23.3028C9.69499 23.2582 9.86307 23.207 10.0224 23.149C10.1817 23.091 10.3277 23.0276 10.4604 22.9596C10.5931 22.8916 10.7272 22.8386 10.8632 22.7999C10.9992 22.7612 11.1471 22.7138 11.3071 22.6578C11.4671 22.6018 11.6586 22.5207 11.8813 22.4147C12.104 22.3087 12.3166 22.2298 12.52 22.1778C12.7233 22.1258 12.8951 22.0803 13.0351 22.0416C13.1751 22.0029 13.3624 21.9423 13.5971 21.859C13.8318 21.7757 14.0431 21.6887 14.2304 21.5987C14.4177 21.5087 14.5872 21.4416 14.7392 21.3976C14.8912 21.3536 15.039 21.2808 15.183 21.1788C15.327 21.0768 15.4633 20.9999 15.5913 20.9479C15.7193 20.8959 15.8296 20.8545 15.9223 20.8238C16.015 20.7932 16.0938 20.7518 16.1591 20.6998C16.2245 20.6478 16.2677 20.5883 16.289 20.5216C16.3103 20.4549 16.2771 20.3484 16.1884 20.2018C16.0998 20.0551 15.9712 19.8496 15.8032 19.5856C15.6352 19.3216 15.4934 19.1184 15.3774 18.9757C15.2614 18.833 15.1647 18.7049 15.0873 18.5909C15.01 18.4769 14.9212 18.3507 14.8212 18.212C14.7212 18.0734 14.6166 17.9311 14.5073 17.7857C14.3979 17.6404 14.2857 17.5081 14.1704 17.3888C14.055 17.2694 13.9386 17.1413 13.8212 17.004C13.7039 16.8667 13.6053 16.7616 13.5253 16.6896C13.4453 16.6176 13.3349 16.5034 13.1943 16.3468C13.0536 16.1901 12.939 16.0559 12.851 15.9439C12.763 15.8319 12.6645 15.7216 12.5551 15.6129C12.4458 15.5042 12.3354 15.3896 12.2241 15.2696C12.1127 15.1496 12.0184 15.0313 11.9404 14.9147C11.8624 14.798 11.791 14.6952 11.727 14.6065C11.663 14.5179 11.586 14.4095 11.496 14.2809C11.406 14.1522 11.3093 14.0175 11.206 13.8775C11.1027 13.7375 10.9962 13.5742 10.8862 13.3868C10.7762 13.1995 10.6813 13.0356 10.602 12.8956C10.5227 12.7556 10.4344 12.6294 10.3364 12.5167C10.2384 12.404 10.153 12.2797 10.081 12.1437C10.009 12.0077 9.92597 11.8677 9.83197 11.7237C9.73797 11.5797 9.67315 11.4474 9.63715 11.3268C9.60115 11.2061 9.54766 11.0973 9.47699 11.0006C9.40633 10.9039 9.3415 10.8072 9.28217 10.7106C9.22284 10.6139 9.15009 10.5074 9.06342 10.3907C8.97675 10.2741 8.89931 10.122 8.83197 9.93467C8.76464 9.74734 8.67028 9.55628 8.54828 9.36094C8.42628 9.16561 8.31745 8.98774 8.22211 8.82774C8.12678 8.66774 8.03242 8.53357 7.93842 8.42491C7.84442 8.31624 7.75329 8.18765 7.66596 8.03965C7.57863 7.89165 7.49374 7.74801 7.41108 7.60801C7.32841 7.46801 7.24539 7.31596 7.16205 7.15196C7.07872 6.98796 6.9957 6.85175 6.91303 6.74375C6.83036 6.63575 6.74969 6.48556 6.67035 6.29356C6.59102 6.10156 6.50986 5.96584 6.42719 5.88584C6.34452 5.80584 6.26336 5.6754 6.18403 5.49473C6.10469 5.31406 6.02402 5.17228 5.94135 5.06895C5.85868 4.96562 5.77752 4.84916 5.69819 4.71983C5.61885 4.5905 5.53769 4.49193 5.45502 4.42393C5.37236 4.35593 5.30939 4.26529 5.26606 4.15196C5.22272 4.03862 5.17158 3.9517 5.11225 3.8917C5.05292 3.8317 4.9876 3.74682 4.91694 3.63682C4.84627 3.52682 4.79141 3.44566 4.75141 3.39366C4.71141 3.34166 4.66399 3.27869 4.60932 3.20469C4.55465 3.13069 4.49169 3.07769 4.42035 3.04502C4.34902 3.01236 4.27999 2.94704 4.21332 2.84971C4.14666 2.75238 4.0697 2.69703 3.98237 2.6837C3.89503 2.67036 3.81808 2.58548 3.75141 2.42881C3.68474 2.27215 3.59782 2.12802 3.49115 1.99668C3.38449 1.86535 3.29806 1.8282 3.23139 1.88487C3.16472 1.94153 3.10517 2.23958 3.05317 2.77891" fill="#F9EDDE"/>
<path d="M4.34033 2.0912L4.15137 4.537L3.80225 10.204L3.62402 18.1923L3.52344 23.8593L3.4873 25.0429L3.53418 25.3392C3.53979 25.6637 3.42155 25.9777 3.20312 26.2177C2.9847 26.4577 2.68244 26.6054 2.35889 26.6303C2.03533 26.6552 1.71448 26.5557 1.46191 26.3519C1.20934 26.1482 1.0441 25.8556 1 25.5341L1.07715 24.2489L1.16016 17.2152L1.4502 8.44618L1.80518 3.66688L1.87646 1.91395C1.91824 1.60168 2.07736 1.31734 2.32178 1.11854C2.56619 0.919745 2.87717 0.821419 3.19141 0.844129C3.50564 0.866839 3.79941 1.00874 4.0127 1.24061C4.22599 1.47249 4.34292 1.77714 4.33936 2.09218M2.18945 24.1669L3.19043 23.9891L9.07617 22.0053L14.5771 19.891L15.3174 19.4472L15.4531 19.3051C15.7507 19.071 16.129 18.9647 16.5049 19.0097C16.8808 19.0546 17.2235 19.2468 17.4575 19.5443C17.6916 19.8419 17.7978 20.2207 17.7529 20.5966C17.708 20.9725 17.5158 21.3152 17.2183 21.5492L16.6973 21.8803L15.3174 22.6141L11.8242 23.952L6.89111 25.663L3.46338 26.5751L2.34424 26.705C2.01389 26.7143 1.69304 26.5951 1.44922 26.372C1.2054 26.1489 1.0576 25.8395 1.0376 25.5097C1.0176 25.1798 1.12672 24.8548 1.3418 24.6039C1.55688 24.353 1.86137 24.1956 2.19043 24.1649M15.1284 21.181L14.3472 20.0438L11.7422 16.7401L8.81104 12.767L7.41406 10.3568L5.50732 7.21327L2.99609 3.59511L2.08447 2.52284C1.90653 2.18807 1.86347 1.79783 1.96484 1.43251C2.06621 1.06719 2.3039 0.754668 2.62891 0.559461C2.95391 0.364253 3.34179 0.301553 3.71191 0.38368C4.08203 0.465807 4.40623 0.686516 4.61816 1.00087L5.83203 2.54725L9.19531 7.78212L12.2153 12.7802L14.4185 15.6039L16.6514 18.3993L17.5513 19.6723C17.7515 19.9934 17.816 20.3807 17.7305 20.7494C17.645 21.1181 17.4164 21.4378 17.0952 21.6381C16.774 21.8383 16.3863 21.9028 16.0176 21.8173C15.6489 21.7318 15.3296 21.5032 15.1294 21.182" fill="#D2B09B"/>
<path d="M9.38538 24.5281C9.44604 24.8881 9.50325 25.2011 9.55725 25.4671C9.61125 25.7331 9.66257 26.0123 9.71057 26.305C9.75857 26.5976 9.8094 26.8991 9.8634 27.2098C9.9174 27.5204 9.98829 27.8561 10.0763 28.2161C10.1643 28.5761 10.2486 28.9174 10.3292 29.24C10.4099 29.5627 10.4761 29.8248 10.5275 30.0262C10.5788 30.2275 10.6251 30.3715 10.6671 30.4588C10.7091 30.5461 10.8021 30.5208 10.9454 30.3821C11.0888 30.2435 11.215 30.1292 11.3243 30.0398C11.4337 29.9505 11.5148 29.879 11.5675 29.825C11.6202 29.771 11.6643 29.7226 11.7003 29.68C11.7363 29.6373 11.7652 29.5981 11.7872 29.5628C11.8092 29.5275 11.8201 29.4894 11.8195 29.448C11.8188 29.4067 11.7675 29.2973 11.6661 29.1199C11.5648 28.9426 11.4704 28.7877 11.3824 28.6551C11.2944 28.5224 11.1777 28.3312 11.0323 28.0818C10.887 27.8325 10.7687 27.6274 10.6774 27.4661C10.586 27.3048 10.4795 27.1034 10.3575 26.8621C10.2355 26.6208 10.1258 26.3669 10.0284 26.1009C9.93111 25.8349 9.8232 25.5474 9.7052 25.2381C9.5872 24.9287 9.48957 24.6408 9.41223 24.3748C9.3349 24.1088 9.32604 24.1608 9.38538 24.5281Z" fill="#F9EDDE"/>
<path d="M10.533 23.7799L10.9681 26.1227L11.657 29.341L11.9193 30.2106C11.9986 30.5201 11.9568 30.8482 11.8026 31.1281C11.6483 31.4079 11.3932 31.6187 11.0892 31.7169C10.7851 31.8151 10.4551 31.7936 10.1663 31.6569C9.87755 31.5201 9.65166 31.278 9.53497 30.9806L9.27911 30.0099L8.53595 26.6207L8.05499 24.1979C7.9997 23.8692 8.07746 23.5319 8.27081 23.2604C8.46416 22.9888 8.75751 22.8049 9.08624 22.7496C9.41498 22.6944 9.75219 22.7721 10.0237 22.9655C10.2953 23.1588 10.4787 23.4522 10.534 23.7809M9.88605 29.673L10.2772 29.297L10.1668 28.6579L9.32501 27.7399L8.64191 26.1588L8.30695 25.2267C8.19377 24.9051 8.21092 24.5519 8.3548 24.2428C8.49868 23.9337 8.758 23.6934 9.07697 23.5729C9.39593 23.4524 9.74952 23.4615 10.0618 23.5983C10.3741 23.7351 10.6202 23.9887 10.7479 24.3048L11.0579 25.1046L12.0101 27.0407L12.8729 28.7619L12.6981 30.132L11.931 31.2121L11.576 31.5216C11.327 31.7184 11.0129 31.8135 10.6966 31.7877C10.3803 31.762 10.0854 31.6178 9.8714 31.3834C9.65742 31.149 9.54015 30.8419 9.54327 30.5246C9.5464 30.2072 9.66944 29.9031 9.888 29.673" fill="#D2B09B"/>
</svg>
