<svg width="32" height="32" viewBox="0 0 32 32" fill="none" xmlns="http://www.w3.org/2000/svg">
<path d="M16.5763 29.2155C16.2288 29.1082 15.9571 29.0268 15.7613 28.9713C15.5656 28.9158 15.3829 28.8549 15.2128 28.7885C15.0427 28.722 14.8983 28.6704 14.78 28.6332C14.6617 28.5961 14.5307 28.5519 14.3867 28.5006C14.2428 28.4493 14.11 28.403 13.9881 28.3622C13.8661 28.3214 13.759 28.2827 13.6668 28.2461C13.5747 28.2094 13.4713 28.1669 13.3567 28.1188C13.2421 28.0707 13.1552 28.0358 13.0961 28.0138C13.0369 27.9918 12.9595 27.9603 12.8638 27.9195C12.768 27.8786 12.6794 27.8345 12.5977 27.7868C12.5161 27.7392 12.4309 27.6893 12.3425 27.637C12.254 27.5846 12.1544 27.5254 12.0435 27.4595C11.9325 27.3935 11.8179 27.3251 11.6996 27.2544C11.5813 27.1837 11.4797 27.1266 11.3949 27.0827C11.3101 27.0387 11.2177 26.9888 11.1177 26.9328C11.0178 26.8768 10.9199 26.8155 10.8241 26.7496C10.7283 26.6836 10.627 26.6193 10.5197 26.556C10.4124 26.4927 10.3163 26.4242 10.2315 26.3509C10.1467 26.2776 10.0433 26.1983 9.92137 26.1125C9.79942 26.0266 9.69434 25.9377 9.60589 25.8461C9.51744 25.7545 9.41955 25.6621 9.31226 25.5689C9.20497 25.4758 9.11087 25.369 9.02975 25.2481C8.94863 25.1272 8.87087 25.0327 8.79707 24.9652C8.72328 24.8977 8.66787 24.8351 8.63071 24.777C8.59355 24.7189 8.53985 24.6597 8.46971 24.5995C8.39958 24.5393 8.34626 24.4784 8.3091 24.4166C8.27194 24.3549 8.22946 24.3029 8.18184 24.261C8.13421 24.2191 8.09552 24.1692 8.06569 24.1111C8.03586 24.053 8.00266 24.0072 7.96602 23.9731C7.92939 23.9391 7.90339 23.8983 7.88821 23.8512C7.87303 23.8041 7.84703 23.7654 7.81039 23.7351C7.77376 23.7047 7.74435 23.6623 7.72185 23.6078C7.69934 23.5534 7.66614 23.5075 7.62218 23.4698C7.57822 23.4321 7.54843 23.388 7.53325 23.3372C7.51807 23.2864 7.49037 23.244 7.45007 23.2099C7.40977 23.1759 7.38585 23.1427 7.378 23.1103C7.37015 23.0778 7.33317 22.9981 7.26722 22.8715C7.20128 22.7448 7.14378 22.6103 7.09511 22.4674C7.04644 22.3246 7.00055 22.2007 6.95711 22.096C6.91367 21.9913 6.88048 21.8972 6.85745 21.8135C6.83442 21.7297 6.80463 21.639 6.76852 21.5417C6.7324 21.4444 6.70678 21.3646 6.69108 21.3029C6.67538 21.2411 6.65108 21.1508 6.61864 21.0315C6.58619 20.9122 6.56018 20.8143 6.54082 20.7379C6.52146 20.6615 6.50707 20.6006 6.49712 20.555C6.48718 20.5095 6.4796 20.4558 6.47489 20.394C6.47018 20.3323 6.46128 20.2638 6.44767 20.1889C6.43406 20.1141 6.42649 20.0477 6.42544 19.9896C6.42439 19.9315 6.41549 19.8761 6.39822 19.8233C6.38095 19.7704 6.37167 19.6947 6.37062 19.5963C6.36958 19.4979 6.36579 19.3983 6.35951 19.2973C6.35323 19.1963 6.35872 19.0632 6.37599 18.8983C6.39326 18.7334 6.40804 18.6133 6.42007 18.538C6.43211 18.4626 6.45981 18.3537 6.50325 18.2114C6.54669 18.069 6.59088 17.9417 6.63588 17.8292C6.68089 17.7167 6.71958 17.6021 6.75203 17.4854C6.78448 17.3686 6.82696 17.254 6.8793 17.1415C6.93163 17.029 6.9779 16.9239 7.01768 16.826C7.05745 16.7282 7.10737 16.6375 7.16756 16.5543C7.22774 16.471 7.27936 16.3896 7.3228 16.3101C7.36624 16.2305 7.41446 16.1696 7.46732 16.1272C7.52018 16.0848 7.56645 16.0407 7.6057 15.9946C7.64495 15.9485 7.68913 15.9188 7.73833 15.9057C7.78753 15.8926 7.86111 15.8782 7.95951 15.862C8.0579 15.8457 8.15409 15.842 8.24777 15.8509C8.34145 15.8598 8.42286 15.8652 8.49195 15.8673C8.56103 15.8694 8.62743 15.8842 8.69128 15.9114C8.75513 15.9386 8.81224 15.9591 8.86301 15.9728C8.91377 15.9864 8.96199 16.0086 9.00752 16.0395C9.05305 16.0703 9.09383 16.0959 9.12942 16.1169C9.16501 16.1378 9.19612 16.1583 9.22333 16.1782C9.25055 16.1981 9.27655 16.2186 9.30115 16.2395C9.32575 16.2605 9.34247 16.2789 9.35136 16.2951C9.36026 16.3114 9.37333 16.3336 9.39008 16.3618C9.40683 16.3901 9.42355 16.4271 9.44029 16.4726C9.45704 16.5181 9.46803 16.5589 9.47326 16.5945C9.47849 16.6301 9.48948 16.6595 9.50623 16.6831C9.52297 16.7066 9.53396 16.7305 9.53919 16.7551C9.54443 16.7797 9.54783 16.7928 9.54992 16.7938C9.55202 16.7949 9.55581 16.7928 9.56104 16.7881C9.56627 16.7834 9.56798 16.7557 9.56641 16.7049C9.56484 16.6541 9.56484 16.61 9.56641 16.5723C9.56798 16.5346 9.57006 16.4864 9.57216 16.4278C9.57425 16.3691 9.57425 16.3192 9.57216 16.2779C9.57006 16.2365 9.57006 16.1924 9.57216 16.1452C9.57425 16.0981 9.57425 16.0595 9.57216 16.0291C9.57006 15.9987 9.57006 15.9563 9.57216 15.9018C9.57425 15.8474 9.57425 15.8049 9.57216 15.7746C9.57006 15.7442 9.57006 15.7055 9.57216 15.6584C9.57425 15.6113 9.57425 15.5411 9.57216 15.448C9.57006 15.3548 9.57006 15.2683 9.57216 15.1877C9.57425 15.1071 9.57046 15.0126 9.56104 14.9048C9.55162 14.797 9.54443 14.7012 9.53919 14.6169C9.53396 14.5327 9.52297 14.4437 9.50623 14.3505C9.48948 14.2574 9.47641 14.1616 9.46751 14.0626C9.45861 13.9637 9.44971 13.8863 9.44029 13.8303C9.43087 13.7743 9.41989 13.7076 9.40733 13.6306C9.39477 13.5537 9.37999 13.478 9.36325 13.4037C9.3465 13.3294 9.33722 13.2651 9.33565 13.2101C9.33408 13.1552 9.32688 13.0977 9.3138 13.038C9.30071 12.9783 9.29143 12.9082 9.2862 12.8276C9.28096 12.747 9.27756 12.6567 9.27546 12.5562C9.27337 12.4557 9.26958 12.3411 9.26435 12.2123C9.25911 12.0836 9.25741 11.958 9.25898 11.8355C9.26055 11.7131 9.26055 11.5875 9.25898 11.4587C9.25741 11.33 9.25741 11.2228 9.25898 11.1375C9.26055 11.0522 9.26396 10.9598 9.26971 10.8603C9.27547 10.7609 9.28096 10.6723 9.2862 10.5943C9.29143 10.5163 9.29522 10.4386 9.29731 10.3616C9.29941 10.2847 9.31418 10.2073 9.3414 10.1293C9.36861 10.0514 9.39423 9.96445 9.41883 9.86868C9.44343 9.7729 9.47492 9.68808 9.51313 9.61377C9.55133 9.53945 9.59381 9.45425 9.64039 9.35847C9.68697 9.2627 9.74068 9.17239 9.80139 9.08708C9.8621 9.00177 9.92849 8.90729 10.0007 8.80418C10.0729 8.70108 10.1486 8.61797 10.2276 8.55464C10.3067 8.49131 10.3936 8.41393 10.4883 8.32234C10.583 8.23075 10.6604 8.16436 10.7206 8.12301C10.7808 8.08167 10.8605 8.02966 10.9594 7.96738C11.0583 7.9051 11.1617 7.8514 11.2695 7.80639C11.3773 7.76138 11.4693 7.72098 11.5463 7.68487C11.6232 7.64876 11.69 7.62276 11.746 7.60706C11.802 7.59136 11.8906 7.56535 12.012 7.52924C12.1334 7.49313 12.2498 7.46751 12.3612 7.45181C12.4727 7.43611 12.5761 7.4173 12.6713 7.39585C12.7666 7.37439 12.8406 7.3634 12.8929 7.36288C12.9452 7.36236 13.0044 7.35686 13.0704 7.3464C13.1363 7.33593 13.188 7.34142 13.2256 7.36288C13.2633 7.38434 13.3096 7.41583 13.364 7.45718C13.4184 7.49852 13.4626 7.55223 13.4966 7.61817C13.5307 7.68412 13.5694 7.756 13.6128 7.83399C13.6562 7.91197 13.6877 8.00815 13.7071 8.12225C13.7265 8.23634 13.7408 8.34521 13.7508 8.44884C13.7607 8.55247 13.77 8.66499 13.7784 8.78693C13.7868 8.90888 13.7923 9.02178 13.7949 9.12541C13.7975 9.22904 13.7992 9.35463 13.8002 9.50222C13.8013 9.64981 13.8034 9.7826 13.806 9.90088C13.8086 10.0192 13.8048 10.1359 13.7949 10.2505C13.7849 10.3651 13.7794 10.4482 13.7784 10.5C13.7773 10.5518 13.7756 10.6182 13.773 10.6993C13.7704 10.7805 13.7628 10.8636 13.7508 10.9489C13.7388 11.0342 13.7333 11.1321 13.7343 11.2425C13.7354 11.3529 13.7265 11.4474 13.7071 11.5254C13.6877 11.6034 13.6801 11.6865 13.6849 11.775C13.6896 11.8634 13.6841 11.9408 13.6684 12.0072C13.6527 12.0737 13.651 12.1401 13.663 12.2066C13.675 12.273 13.6696 12.3377 13.6465 12.4005C13.6235 12.4633 13.6163 12.5335 13.6247 12.611C13.633 12.6884 13.6293 12.7548 13.6136 12.8103C13.5979 12.8658 13.5962 12.9267 13.6082 12.9932C13.6202 13.0596 13.6147 13.1059 13.5917 13.1315C13.5687 13.1572 13.5611 13.1921 13.5695 13.2366C13.5778 13.2811 13.5744 13.3218 13.5587 13.3585C13.543 13.3951 13.541 13.4338 13.553 13.4746C13.565 13.5154 13.565 13.5226 13.553 13.4965C13.541 13.4703 13.5447 13.4278 13.5641 13.3692C13.5835 13.3106 13.589 13.2292 13.5806 13.125C13.5722 13.0209 13.576 12.9213 13.5917 12.826C13.6074 12.7308 13.6129 12.6274 13.6082 12.5159C13.6035 12.4044 13.6107 12.3049 13.63 12.2169C13.6494 12.129 13.6532 12.0311 13.6412 11.9233C13.6291 11.8155 13.6308 11.7381 13.6465 11.691C13.6622 11.6439 13.6677 11.5682 13.663 11.4641C13.6583 11.3599 13.6693 11.2713 13.696 11.1981C13.7227 11.1248 13.7319 11.0451 13.7236 10.9592C13.7152 10.8734 13.7207 10.7882 13.7401 10.7039C13.7594 10.6197 13.7628 10.5184 13.7508 10.3996C13.7388 10.2808 13.7442 10.1753 13.7673 10.0837C13.7903 9.99213 13.8013 9.88914 13.8002 9.774C13.7992 9.65886 13.8123 9.55169 13.839 9.45277C13.8656 9.35385 13.8783 9.26865 13.8773 9.19747C13.8762 9.1263 13.8889 9.0599 13.9156 8.99815C13.9423 8.93639 13.9666 8.8717 13.9881 8.80418C14.0095 8.73667 14.0465 8.67027 14.0988 8.60485C14.1512 8.53943 14.1916 8.47853 14.2204 8.42201C14.2491 8.36548 14.2878 8.31557 14.3365 8.27213C14.3852 8.22869 14.4294 8.18621 14.4691 8.14486C14.5089 8.10352 14.5497 8.07202 14.591 8.05056C14.6324 8.02911 14.6711 8.0014 14.7072 7.96738C14.7433 7.93336 14.808 7.89297 14.9011 7.84587C14.9943 7.79877 15.0736 7.75629 15.1396 7.71861C15.2055 7.68092 15.2702 7.65492 15.3335 7.64079C15.3969 7.62666 15.4599 7.60824 15.5221 7.58521C15.5844 7.56218 15.6692 7.54741 15.777 7.54113C15.8849 7.53485 15.9735 7.52765 16.0431 7.51928C16.1127 7.5109 16.1884 7.50541 16.27 7.50279C16.3516 7.50018 16.4239 7.49809 16.4862 7.49704C16.5485 7.496 16.6056 7.496 16.6579 7.49704C16.7103 7.49809 16.7527 7.49639 16.7852 7.49168C16.8176 7.48697 16.8601 7.49076 16.9125 7.50279C16.9648 7.51483 17.0202 7.53325 17.0788 7.55838C17.1374 7.5835 17.2038 7.61669 17.2781 7.65804C17.3525 7.69939 17.4096 7.73808 17.4499 7.77419C17.4902 7.8103 17.5327 7.84729 17.5771 7.88497C17.6216 7.92265 17.6569 7.95964 17.6826 7.99575C17.7082 8.03186 17.7431 8.07604 17.7876 8.12838C17.8321 8.18072 17.8674 8.23234 17.893 8.28363C17.9186 8.33492 17.9464 8.40719 17.9762 8.49982C18.006 8.59246 18.0261 8.69205 18.0371 8.79882C18.0481 8.90558 18.0574 9.01275 18.0647 9.12004C18.0721 9.22733 18.0776 9.33071 18.0812 9.43015C18.0849 9.52959 18.0887 9.64041 18.0923 9.76288C18.096 9.88535 18.0977 10.0109 18.0977 10.1397C18.0977 10.2684 18.0939 10.3978 18.0866 10.5276C18.0793 10.6574 18.0704 10.7587 18.0594 10.832C18.0484 10.9052 18.0391 10.9809 18.0318 11.0589C18.0244 11.1369 18.0189 11.2276 18.0153 11.3307C18.0116 11.4338 18.0044 11.5224 17.9934 11.5967C17.9824 11.671 17.9715 11.7507 17.9605 11.8355C17.9495 11.9203 17.9347 12.0127 17.9164 12.1127C17.8981 12.2126 17.8871 12.3029 17.8834 12.3841C17.8798 12.4652 17.8726 12.5426 17.8616 12.6164C17.8506 12.6901 17.8468 12.7603 17.8505 12.8268C17.8541 12.8933 17.8524 12.9689 17.8451 13.0537C17.8378 13.1385 17.8378 13.2142 17.8451 13.2807C17.8524 13.3471 17.8503 13.4173 17.8393 13.4911C17.8283 13.5649 17.8283 13.6385 17.8393 13.7123C17.8503 13.7861 17.8503 13.86 17.8393 13.9338C17.8283 14.0076 17.8283 14.063 17.8393 14.1002C17.8503 14.1374 17.8503 14.1798 17.8393 14.2275C17.8283 14.2751 17.8283 14.31 17.8393 14.3325C17.8503 14.355 17.8503 14.3738 17.8393 14.3885C17.8283 14.4031 17.8283 14.3809 17.8393 14.3218C17.8503 14.2626 17.8541 14.2068 17.8505 14.155C17.8468 14.1032 17.8578 14.0444 17.8834 13.9779C17.9091 13.9115 17.9183 13.8502 17.911 13.7947C17.9037 13.7392 17.9071 13.6838 17.9218 13.6283C17.9364 13.5729 17.944 13.501 17.944 13.4125C17.944 13.3241 17.9512 13.241 17.9658 13.163C17.9805 13.085 17.9898 13.011 17.9934 12.9414C17.9971 12.8718 18.006 12.8037 18.0207 12.7367C18.0353 12.6697 18.0429 12.6177 18.0429 12.5811C18.0429 12.5445 18.0518 12.4945 18.0701 12.4312C18.0884 12.3679 18.0939 12.2977 18.0866 12.2208C18.0793 12.1438 18.0847 12.048 18.1031 11.9329C18.1214 11.8177 18.129 11.7144 18.1253 11.6228C18.1216 11.5312 18.1343 11.4183 18.1636 11.2843C18.1929 11.1503 18.2114 11.0319 18.2192 10.9293C18.2271 10.8268 18.2418 10.7344 18.2633 10.6522C18.2848 10.57 18.2923 10.4964 18.2855 10.431C18.2787 10.3656 18.2914 10.2842 18.3239 10.1868C18.3563 10.0895 18.3747 10.0098 18.3794 9.94803C18.3842 9.88627 18.403 9.80486 18.4354 9.70385C18.4679 9.60284 18.488 9.52351 18.4964 9.46542C18.5047 9.40733 18.5493 9.32762 18.6294 9.22661C18.7094 9.1256 18.7738 9.05371 18.823 9.0108C18.8721 8.96788 18.9406 8.91417 19.028 8.8498C19.1154 8.78542 19.1746 8.74674 19.2055 8.73365C19.2364 8.72057 19.2935 8.69116 19.3772 8.6451C19.461 8.59905 19.5329 8.57304 19.5931 8.56729C19.6532 8.56153 19.7401 8.54102 19.8537 8.50596C19.9673 8.47089 20.0635 8.46161 20.142 8.47836C20.2205 8.4951 20.3129 8.4934 20.4191 8.47299C20.5254 8.45258 20.6161 8.46735 20.6909 8.51707C20.7657 8.56679 20.8471 8.59071 20.9351 8.58914C21.023 8.58757 21.0873 8.60978 21.1287 8.65584C21.17 8.70189 21.233 8.7296 21.3172 8.73902C21.4015 8.74844 21.4808 8.80385 21.5557 8.90538C21.6305 9.00691 21.7174 9.0771 21.8163 9.11583C21.9153 9.15456 21.9837 9.20826 22.0214 9.27682C22.0591 9.34538 22.1033 9.38786 22.154 9.40409C22.2048 9.42031 22.2418 9.4662 22.2648 9.54208C22.2879 9.61797 22.3194 9.67547 22.3591 9.7142C22.3989 9.75293 22.4245 9.82102 22.4366 9.91889C22.4486 10.0168 22.4691 10.0982 22.4979 10.1631C22.5267 10.228 22.5472 10.3279 22.5592 10.4624C22.5713 10.597 22.5897 10.6928 22.6148 10.7503C22.6399 10.8079 22.6547 10.9041 22.6589 11.0386C22.6631 11.1731 22.6703 11.2655 22.6807 11.3157C22.6912 11.366 22.7005 11.4601 22.7083 11.5982C22.7162 11.7364 22.7255 11.8398 22.7359 11.9084C22.7464 11.9769 22.7498 12.0583 22.7467 12.1525C22.7435 12.2467 22.7511 12.3224 22.7689 12.3795C22.7867 12.4365 22.7939 12.5306 22.7908 12.662C22.7876 12.7933 22.7914 12.9079 22.8019 13.0058C22.8123 13.1037 22.814 13.2403 22.8072 13.4156C22.8004 13.5909 22.8021 13.7165 22.8126 13.7924C22.8231 13.8683 22.8231 13.9645 22.8126 14.0807C22.8021 14.1968 22.8021 14.2981 22.8126 14.385C22.8231 14.4719 22.8252 14.5753 22.8184 14.6951C22.8115 14.815 22.8115 14.8985 22.8184 14.9451C22.8252 14.9916 22.8252 15.0652 22.8184 15.1662C22.8115 15.2672 22.8115 15.3114 22.8184 15.2989C22.8252 15.2863 22.8324 15.2385 22.8402 15.1547C22.8481 15.071 22.8686 14.9488 22.9015 14.7887C22.9345 14.6285 22.9529 14.5122 22.9571 14.4394C22.9613 14.3667 22.9723 14.2688 22.9901 14.1458C23.0079 14.0228 23.0172 13.9082 23.0177 13.802C23.0182 13.6957 23.033 13.5718 23.0618 13.4305C23.0905 13.2892 23.1049 13.1708 23.1055 13.0756C23.106 12.9803 23.1191 12.8845 23.1442 12.7877C23.1693 12.6909 23.1748 12.6169 23.1607 12.5661C23.1465 12.5154 23.1499 12.436 23.1714 12.3277C23.1929 12.2194 23.2004 12.1304 23.1936 12.0613C23.1868 11.9922 23.1978 11.9019 23.2266 11.7899C23.2554 11.6779 23.2681 11.591 23.2649 11.5292C23.2618 11.4675 23.2823 11.3918 23.3263 11.3023C23.3702 11.2128 23.3924 11.1443 23.393 11.0972C23.3935 11.0501 23.4195 10.9913 23.4708 10.9201C23.5221 10.849 23.5515 10.8065 23.5593 10.7929C23.5672 10.7793 23.5949 10.7516 23.6425 10.7097C23.6901 10.6678 23.7178 10.6531 23.7257 10.6656C23.7335 10.6782 23.7633 10.6689 23.8146 10.638C23.8659 10.6071 23.9025 10.6037 23.925 10.6273C23.9475 10.6508 23.9883 10.6487 24.0469 10.6215C24.1055 10.5943 24.1404 10.5888 24.1519 10.605C24.1635 10.6213 24.1895 10.6141 24.2298 10.5832C24.2701 10.5523 24.2961 10.5485 24.3076 10.5721C24.3191 10.5956 24.3468 10.5939 24.3908 10.5667C24.4347 10.5395 24.4641 10.5412 24.4793 10.5721C24.4945 10.603 24.5353 10.6139 24.6012 10.605C24.6671 10.5961 24.7226 10.6259 24.7676 10.694C24.8126 10.762 24.8697 10.8007 24.9393 10.8101C25.0089 10.8195 25.0609 10.8544 25.0949 10.9152C25.1289 10.9759 25.1772 11.0091 25.2394 11.0148C25.3017 11.0206 25.3476 11.0597 25.3774 11.1314C25.4073 11.2031 25.4497 11.2451 25.5047 11.2582C25.5597 11.2713 25.5966 11.3212 25.6155 11.4081C25.6343 11.495 25.6842 11.5673 25.7654 11.6243C25.8465 11.6814 25.889 11.7477 25.8926 11.8236C25.8963 11.8995 25.9202 11.9532 25.9647 11.9846C26.0092 12.016 26.0297 12.0769 26.026 12.1675C26.0224 12.258 26.0429 12.3316 26.0874 12.3887C26.1318 12.4457 26.1445 12.5292 26.1257 12.6386C26.1068 12.748 26.1195 12.8421 26.164 12.9211C26.2085 13.0001 26.2195 13.0997 26.197 13.2201C26.1745 13.3405 26.1838 13.4312 26.2246 13.4919C26.2654 13.5526 26.2709 13.6374 26.2411 13.7468C26.2112 13.8562 26.2129 13.9431 26.2464 14.0074C26.2799 14.0718 26.282 14.1608 26.2522 14.2739C26.2223 14.3869 26.2241 14.4903 26.2575 14.584C26.291 14.6776 26.291 14.7734 26.2575 14.8718C26.2241 14.9702 26.2241 15.0554 26.2575 15.1271C26.291 15.1988 26.291 15.2857 26.2575 15.3878C26.2241 15.4899 26.2241 15.5822 26.2575 15.6649C26.291 15.7476 26.291 15.8362 26.2575 15.931C26.2241 16.0257 26.2241 16.1109 26.2575 16.1863C26.291 16.2616 26.291 16.3612 26.2575 16.4853C26.2241 16.6093 26.2241 16.7072 26.2575 16.7789C26.291 16.8506 26.291 16.9392 26.2575 17.0449C26.2241 17.1506 26.2241 17.2358 26.2575 17.3002C26.291 17.3646 26.291 17.4403 26.2575 17.5271C26.2241 17.614 26.2241 17.6728 26.2575 17.7042C26.291 17.7356 26.2948 17.7986 26.2687 17.8928C26.2425 17.987 26.2497 18.0606 26.2905 18.114C26.3313 18.1674 26.3351 18.2471 26.3016 18.3528C26.2681 18.4585 26.2736 18.5509 26.3181 18.63C26.3626 18.709 26.3698 18.7904 26.34 18.8741C26.3101 18.9579 26.3139 19.0226 26.3511 19.0681C26.3882 19.1136 26.3899 19.195 26.3564 19.3123C26.323 19.4295 26.323 19.5329 26.3564 19.6224C26.3899 19.7119 26.3916 19.8153 26.3618 19.9325C26.332 20.0497 26.332 20.1678 26.3618 20.2871C26.3916 20.4064 26.3916 20.5396 26.3618 20.6861C26.332 20.8327 26.3248 20.96 26.34 21.0683C26.3551 21.1766 26.3346 21.3153 26.2786 21.4838C26.2226 21.6523 26.1987 21.7796 26.2066 21.866C26.2144 21.9524 26.1901 22.054 26.1341 22.1707C26.0781 22.2875 26.0525 22.387 26.0567 22.4697C26.0609 22.5524 26.0349 22.6632 25.9789 22.8025C25.9229 22.9417 25.8969 23.0413 25.9011 23.1015C25.9052 23.1616 25.883 23.2523 25.8344 23.3732C25.7857 23.4941 25.7563 23.6013 25.7458 23.6945C25.7353 23.7876 25.7038 23.8889 25.6515 23.9988C25.5992 24.1087 25.5749 24.1884 25.5791 24.2376C25.5832 24.2868 25.561 24.3587 25.5124 24.4534C25.4637 24.5482 25.4398 24.6112 25.4403 24.642C25.4408 24.6729 25.4203 24.7188 25.379 24.78C25.3376 24.8413 25.3175 24.8855 25.318 24.9127C25.3185 24.9399 25.2887 24.9974 25.2291 25.0848C25.1694 25.1722 25.14 25.2238 25.1405 25.24C25.1411 25.2563 25.1168 25.3004 25.0681 25.3727C25.0194 25.4449 24.9993 25.4836 25.0071 25.4888C25.015 25.494 24.9907 25.5365 24.9347 25.6161C24.8787 25.6956 24.8455 25.7419 24.835 25.7544C24.8246 25.767 24.7787 25.8258 24.697 25.9315C24.6154 26.0373 24.5541 26.1129 24.5138 26.1585C24.4735 26.204 24.3961 26.3057 24.2815 26.4632C24.1669 26.6208 24.0838 26.7241 24.032 26.7733C23.9801 26.8225 23.9192 26.8906 23.8491 26.978C23.779 27.0654 23.7253 27.1229 23.6881 27.1501C23.651 27.1774 23.5901 27.2328 23.5053 27.3165C23.4205 27.4002 23.352 27.4502 23.3002 27.4664C23.2484 27.4826 23.1691 27.5346 23.0618 27.622C22.9545 27.7094 22.8843 27.7576 22.8513 27.7665C22.8183 27.7754 22.7482 27.8253 22.6409 27.9164C22.5336 28.0075 22.4505 28.0591 22.3913 28.0717C22.3322 28.0842 22.2176 28.1417 22.0475 28.2438C21.8774 28.3458 21.7645 28.3995 21.709 28.4048C21.6535 28.41 21.5738 28.4487 21.4702 28.5209C21.3666 28.5931 21.3095 28.617 21.2985 28.593C21.2875 28.5689 21.1858 28.6021 20.9937 28.6926C20.8016 28.7832 20.6798 28.8257 20.628 28.8199C20.5762 28.8141 20.4965 28.8418 20.3892 28.9031C20.2819 28.9643 20.2193 28.9791 20.201 28.9472C20.1827 28.9152 20.1307 28.9224 20.0454 28.969C19.9601 29.0156 19.9176 29.0249 19.9181 28.9966C19.9186 28.9684 19.8577 28.9793 19.7353 29.0296C19.6128 29.0798 19.5481 29.0965 19.5413 29.0798C19.5345 29.063 19.4643 29.0778 19.3309 29.1239C19.1974 29.1699 19.1181 29.1826 19.0924 29.1622C19.0668 29.1418 19.0076 29.149 18.9149 29.1841C18.8223 29.2191 18.7652 29.2229 18.7432 29.1952C18.7212 29.1674 18.6511 29.1691 18.5328 29.2005C18.4145 29.2319 18.3477 29.234 18.3331 29.2063C18.3184 29.1786 18.2613 29.1786 18.1613 29.2063C18.0614 29.234 18.0151 29.2357 18.023 29.2117C18.0308 29.1876 17.9534 29.1876 17.7907 29.2117C17.6279 29.2357 17.4989 29.2357 17.4031 29.2117C17.3073 29.1876 17.2204 29.2136 17.1425 29.2895C17.0645 29.3654 16.8721 29.3394 16.5659 29.2117" fill="#F9EDDE"/>
<path d="M16.7321 30.5792L14.4708 29.8145L11.0795 28.4176L9.43316 27.4091L7.98726 26.0452L6.48539 24.1558L5.52669 22.1054L5.05022 20.2651L5 18.8575L5.43814 17.1061L6.16416 15.5659L7.22789 14.7563L8.58524 14.5068L10.0097 15.3271L10.8016 16.0753C10.965 16.4033 10.9972 16.7812 10.8917 17.1322C10.7862 17.4831 10.5511 17.7808 10.2339 17.9644C9.91678 18.1479 9.54162 18.2037 9.18476 18.1204C8.82791 18.0371 8.51616 17.8209 8.31308 17.5159L8.03594 18.2971L7.82013 19.6882L8.0413 20.8688L8.4622 22.0322L9.42626 23.5394L10.6288 24.9087L11.6706 25.6841L13.2281 26.565L15.8496 27.6345L17.4619 28.1612C17.7716 28.267 18.0282 28.489 18.1776 28.7803C18.3269 29.0715 18.3575 29.4092 18.2627 29.7225C18.1678 30.0357 17.9551 30.3001 17.6693 30.4596C17.3835 30.6191 17.0466 30.6615 16.7301 30.5777M8.11835 16.7676L8.11299 15.7982L7.95736 13.4377L7.89602 10.8219L8.22262 9.05395L8.91529 7.94538L9.8736 7.00853L11.1037 6.36569L12.4676 6L13.7862 6.21581L14.8005 7.25769L15.1719 9.24677L15.0941 12.129L14.9837 13.7524C14.9506 14.1345 14.7668 14.488 14.4731 14.7348C14.1795 14.9817 13.8 15.1014 13.4178 15.0683C13.0357 15.0352 12.6822 14.8518 12.4354 14.5581C12.1885 14.2645 12.0684 13.885 12.1015 13.5028L12.2345 11.613L12.7612 9.24677L12.5948 8.89756L11.5694 9.36291L10.9101 10.2722L10.705 11.4244L10.843 13.3089L10.9875 15.725L10.9933 16.8228C10.9663 17.1905 10.7992 17.5336 10.5268 17.7819C10.2543 18.0302 9.89719 18.1647 9.52861 18.1575C9.16003 18.1504 8.80801 18.0023 8.54538 17.7436C8.28275 17.4849 8.12951 17.1353 8.11682 16.7668M12.1015 13.5638L12.2399 11.4969L12.55 8.77604L13.0046 7.68932L13.8138 6.88012L15.0604 6.28711L16.3127 6.05482L17.4761 6.24878L18.5571 6.88088L19.211 7.78438L19.4663 9.53579L19.3996 11.8909L19.2888 13.7029V14.4289C19.2881 14.814 19.1342 15.1829 18.8614 15.4547C18.5886 15.7265 18.2192 15.879 17.8341 15.8783C17.449 15.8776 17.0801 15.7237 16.8083 15.4509C16.5366 15.1781 16.384 14.8087 16.3848 14.4236L16.5067 11.6805L16.0356 9.05932L15.3203 9.72439L15.088 11.9795L14.9829 13.6972C14.9405 14.0606 14.7616 14.3948 14.4827 14.6317C14.2038 14.8686 13.8455 14.9909 13.4799 14.974C13.1144 14.9572 12.7687 14.8024 12.5128 14.5409C12.2569 14.2793 12.1096 13.9304 12.1007 13.5645M16.3959 14.2687L16.6174 12.3069L16.9437 9.80757L17.3097 8.74921L18.1017 7.81275L19.2103 7.22549L20.5017 7.10934L21.9146 7.52985L23.0619 8.35592L23.7323 9.39205L24.0927 11.792L24.2533 14.5022V15.3827C24.2533 15.7641 24.1021 16.1303 23.8324 16.4C23.5627 16.6697 23.1965 16.8209 22.8151 16.8209C22.4336 16.8209 22.0678 16.6697 21.7981 16.4C21.5284 16.1303 21.3772 15.7641 21.3772 15.3827L21.3047 13.2939L20.9946 10.6287L20.2464 10.2354L19.5093 12.5016L19.277 14.5853C19.2172 14.9524 19.019 15.2822 18.7231 15.5072C18.4271 15.7323 18.0558 15.8356 17.6862 15.7951C17.3165 15.7546 16.9765 15.5737 16.7363 15.2899C16.496 15.0061 16.374 14.6407 16.3951 14.2695M21.3937 15.1622L21.698 12.9508L22.2634 10.2683L23.0673 9.50359L24.2142 9.18812L25.3116 9.4093L26.2316 10.0077L27.0128 11.0001L27.5395 12.8677L27.7557 17.4837L27.5671 22.0943L26.9573 24.4606L26.2646 26.1507L25.4665 27.2757L24.4967 28.2954L22.9783 29.3043L20.7175 30.2189L18.3405 30.6064L17.1989 30.6505C16.8317 30.6295 16.4867 30.4687 16.2341 30.2013C15.9816 29.9338 15.8408 29.5801 15.8408 29.2123C15.8408 28.8445 15.9816 28.4907 16.2341 28.2233C16.4867 27.9559 16.8317 27.7951 17.1989 27.774L18.357 27.6962L20.1249 27.4467L21.654 26.7651L23.2942 25.2855L24.2142 23.7618L24.6688 22.0383L24.8681 17.9375L24.7301 13.7815L24.719 12.0079L24.5139 13.5262L24.2368 15.5989C24.1747 15.9722 23.968 16.3061 23.6614 16.528C23.3548 16.75 22.9733 16.8417 22.5992 16.7841C22.2252 16.7265 21.8887 16.5238 21.6632 16.2198C21.4376 15.9159 21.3412 15.5354 21.3944 15.1607" fill="#D2B09B"/>
</svg>
